<?xml version="1.0" standalone="no"?>
<!DOCTYPE svg PUBLIC "-//W3C//DTD SVG 20010904//EN"
 "http://www.w3.org/TR/2001/REC-SVG-20010904/DTD/svg10.dtd">
<svg version="1.0" xmlns="http://www.w3.org/2000/svg"
 width="300.000000pt" height="300.000000pt" viewBox="0 0 300.000000 300.000000"
 preserveAspectRatio="xMidYMid meet">
<metadata>
Created by potrace 1.10, written by Peter Selinger 2001-2011
</metadata>
<g transform="translate(0.000000,300.000000) scale(0.100000,-0.100000)"
fill="#000000" stroke="none">
<path d="M2183 2970 c-35 -23 -73 -92 -73 -131 0 -39 42 -112 79 -136 66 -45
174 -24 216 41 43 66 36 144 -20 204 -31 34 -37 36 -101 40 -57 2 -75 -1 -101
-18z m129 -8 c2 -4 17 -18 35 -30 68 -48 64 -151 -7 -198 -32 -21 -47 -25 -77
-21 -21 4 -39 11 -41 17 -2 5 -10 10 -18 10 -43 0 -64 131 -27 173 40 44 124
75 135 49z"/>
<path d="M2213 2915 c-54 -43 -53 -110 4 -160 35 -31 67 -31 110 -2 64 43 61
137 -6 171 -42 22 -71 20 -108 -9z m112 -30 c45 -44 22 -109 -42 -121 -26 -5
-37 -1 -57 19 -15 15 -26 38 -26 52 0 33 42 75 75 75 14 0 37 -11 50 -25z"/>
<path d="M1452 2883 l-33 -4 6 -62 c9 -89 13 -118 17 -122 2 -2 23 -1 46 2 33
4 41 9 38 22 -2 9 -7 51 -11 94 -4 50 -11 76 -18 75 -7 0 -27 -3 -45 -5z"/>
<path d="M1812 2773 c-102 -166 -225 -310 -281 -328 -30 -9 -123 36 -188 91
-29 25 -81 83 -116 129 l-62 84 -12 -96 c-14 -109 -42 -209 -76 -268 -21 -38
-24 -39 -67 -37 -34 2 -60 -4 -105 -27 -32 -17 -60 -29 -60 -28 -52 97 -99
138 -176 152 -39 7 -104 -6 -133 -28 -17 -13 -17 -18 8 -142 21 -101 23 -131
14 -137 -7 -4 -49 -27 -93 -49 -44 -23 -81 -43 -83 -44 -1 -1 16 -36 38 -78
l41 -75 -68 -8 c-37 -5 -139 -8 -225 -9 -87 0 -157 -3 -155 -6 1 -4 45 -40 97
-80 121 -92 250 -222 274 -275 17 -40 17 -43 0 -80 -24 -49 -181 -205 -272
-269 -39 -27 -71 -53 -72 -56 0 -3 21 -7 48 -8 120 -4 352 -63 413 -104 32
-22 34 -26 32 -79 -2 -77 -53 -223 -133 -384 -36 -73 -65 -134 -62 -134 2 0
37 21 79 46 192 117 425 221 504 226 41 3 44 1 68 -41 45 -82 108 -308 133
-481 4 -25 4 -24 24 9 94 166 244 355 306 387 38 19 69 10 150 -43 71 -47 136
-114 194 -201 20 -29 37 -52 39 -50 1 2 6 35 9 74 18 206 95 362 187 379 62
11 307 -33 372 -67 10 -5 21 -8 23 -5 2 2 -7 46 -21 98 -31 110 -46 299 -26
323 35 42 239 73 474 72 l149 -1 -33 25 c-203 153 -315 260 -351 335 -20 41
-20 43 -2 80 23 50 180 206 272 270 39 28 71 53 72 56 0 3 -38 9 -84 12 -152
12 -368 77 -405 121 -32 39 24 230 130 444 36 72 64 132 61 132 -2 0 -38 -21
-80 -47 -195 -118 -476 -241 -528 -231 -41 8 -106 175 -148 381 -14 67 -26
133 -28 147 -2 21 -14 7 -66 -77z m57 -73 c18 -84 12 -100 -24 -60 -16 18 -19
18 -41 3 -13 -8 -38 -34 -54 -57 -40 -53 -148 -166 -160 -166 -6 0 -10 5 -10
10 0 6 4 10 8 10 13 0 120 109 139 141 10 16 21 29 25 29 4 0 8 5 8 11 0 15
79 129 90 129 4 0 13 -23 19 -50z m-604 -133 c33 -34 78 -77 100 -95 25 -20
34 -32 23 -32 -9 0 -18 3 -20 8 -4 10 -89 77 -116 91 -18 10 -28 9 -52 -5 -16
-10 -27 -21 -24 -25 2 -4 -1 -11 -7 -15 -8 -4 -9 3 -4 27 14 69 26 109 33 109
4 0 34 -28 67 -63z m575 39 c0 -40 70 -242 100 -290 16 -24 41 -53 55 -62 35
-23 105 -21 186 6 49 16 213 91 280 127 4 2 -8 -33 -27 -79 -46 -116 -70 -239
-55 -288 14 -48 50 -83 115 -114 53 -25 198 -66 235 -66 15 0 -2 -22 -68 -87
-192 -191 -192 -264 -2 -454 l86 -86 -95 -6 c-182 -11 -299 -49 -344 -110 -18
-25 -21 -42 -20 -140 0 -62 6 -130 12 -151 6 -22 10 -41 9 -43 -2 -1 -35 4
-73 12 -38 8 -108 15 -155 15 -70 0 -94 -4 -130 -23 -57 -30 -119 -120 -150
-220 l-23 -75 -60 54 c-80 72 -164 114 -230 114 -42 0 -60 -6 -101 -35 -55
-37 -126 -115 -181 -196 -19 -29 -36 -45 -38 -37 -2 7 -11 45 -20 83 -44 177
-106 286 -173 304 -60 17 -187 -20 -352 -104 -74 -37 -94 -55 -63 -55 19 0 48
13 143 61 20 11 46 19 57 19 11 0 22 5 24 12 2 6 19 11 36 10 18 0 30 3 27 8
-7 11 31 20 86 20 40 0 50 -5 77 -35 18 -19 32 -39 32 -45 0 -5 5 -10 10 -10
6 0 10 -8 10 -18 0 -10 5 -23 11 -29 6 -6 11 -17 13 -24 1 -8 10 -36 19 -64 9
-27 18 -59 20 -70 6 -34 29 -74 46 -80 11 -4 30 10 61 45 25 28 65 74 90 102
75 84 103 101 168 101 60 0 132 -28 163 -64 9 -11 19 -19 22 -19 3 0 19 -13
37 -30 54 -50 74 -42 116 48 53 116 54 118 86 157 48 57 73 65 185 60 54 -2
124 -7 156 -10 56 -7 57 -6 70 22 13 31 47 35 47 5 0 -9 3 -34 6 -54 l6 -36
-38 9 c-140 34 -188 42 -259 44 -67 2 -85 -1 -110 -18 -43 -31 -52 -40 -76
-86 -11 -22 -24 -41 -28 -41 -3 0 -7 -14 -7 -31 -1 -17 -7 -35 -13 -39 -7 -4
-12 -10 -11 -14 3 -12 -13 -121 -20 -141 -6 -17 -17 -9 -85 63 -133 140 -223
179 -313 133 -40 -21 -119 -102 -154 -160 -12 -20 -26 -38 -30 -39 -5 -2 -17
-20 -28 -40 -11 -21 -31 -50 -44 -66 l-24 -29 -12 44 c-7 24 -13 58 -14 76 0
17 -4 29 -8 26 -5 -2 -9 8 -10 24 -2 40 -3 47 -9 58 -3 6 -12 30 -19 55 -7 25
-17 50 -20 55 -4 6 -13 27 -20 49 -14 42 -39 72 -73 85 -27 11 -123 -14 -227
-59 -41 -17 -84 -34 -95 -37 -11 -4 -22 -9 -25 -13 -3 -3 -21 -14 -40 -24 -19
-10 -55 -29 -79 -42 -54 -30 -76 -26 -59 10 6 14 15 23 21 19 6 -3 7 -1 3 6
-4 6 -2 19 6 28 7 9 12 19 11 22 -1 3 4 20 11 36 20 45 50 129 51 139 0 8 35
19 35 12 0 -14 -23 -65 -28 -62 -4 2 -8 -6 -9 -17 -1 -12 -5 -39 -9 -59 -11
-64 13 -43 44 40 17 42 38 114 47 159 26 129 1 185 -109 237 -53 25 -198 66
-235 66 -15 0 2 22 68 88 192 190 192 263 2 453 l-86 86 90 7 c50 3 106 8 125
12 l35 5 54 -104 55 -104 73 39 c64 35 79 39 130 36 54 -2 66 2 168 56 61 32
125 70 144 84 38 28 81 112 81 158 0 45 -55 270 -72 296 -14 20 -12 26 13 66
15 24 38 77 50 117 l23 73 60 -54 c117 -106 236 -141 316 -93 45 28 137 124
185 194 42 60 55 68 55 31z m92 -154 c6 -7 8 -15 4 -19 -11 -11 -18 4 -21 44
-1 21 0 27 2 13 3 -14 10 -31 15 -38z m630 20 c-4 -9 -16 -36 -26 -59 -10 -24
-22 -43 -27 -43 -5 0 -9 -11 -9 -24 0 -13 -8 -30 -17 -37 -12 -8 -14 -9 -7 -1
6 7 8 29 5 50 -6 33 -10 37 -39 40 -18 2 -39 -1 -45 -6 -7 -5 -21 -12 -32 -16
-40 -14 3 16 97 69 94 53 113 58 100 27z m-1845 -86 c17 -8 50 -38 74 -67 41
-50 44 -51 83 -44 23 3 45 10 51 16 5 5 19 9 32 9 13 0 23 5 23 10 0 6 9 10
21 10 11 0 18 -4 14 -9 -7 -13 55 18 79 38 10 9 22 27 27 40 5 13 12 21 15 18
3 -2 -5 -26 -17 -51 -22 -48 -22 -52 6 -151 10 -33 18 -69 19 -80 1 -11 5 -25
9 -31 4 -7 9 -44 12 -82 3 -60 1 -77 -19 -114 -23 -43 -114 -116 -147 -117 -9
-1 -22 -8 -29 -16 -7 -8 -16 -12 -21 -9 -5 3 -9 1 -9 -5 0 -13 -89 -39 -125
-36 -35 2 -76 -9 -126 -36 -20 -10 -44 -19 -52 -19 -16 0 -57 61 -57 86 0 22
11 17 40 -18 l26 -31 48 16 c27 9 52 14 57 11 5 -3 9 -1 9 4 0 5 26 9 58 9 56
1 137 30 153 55 3 5 16 10 27 11 12 1 22 5 22 9 0 4 4 8 10 8 9 0 44 26 81 62
10 9 24 36 30 59 11 35 10 54 -5 123 -20 94 -24 111 -26 111 -1 0 -3 10 -6 23
-7 39 -34 70 -70 82 -39 13 -56 9 -142 -34 l-64 -31 -24 30 c-13 17 -24 35
-24 41 0 38 -95 105 -135 96 -50 -11 -53 -32 -25 -201 6 -35 7 -67 3 -71 -4
-4 -30 -20 -58 -34 -55 -30 -85 -60 -85 -85 0 -17 2 -20 68 -142 23 -42 39
-79 35 -82 -11 -11 -23 -8 -23 6 0 23 -47 59 -81 63 -18 2 -34 6 -37 9 -3 2
-14 0 -25 -6 -11 -6 -17 -7 -13 -1 3 5 19 15 36 22 44 18 48 50 16 113 -31 59
-32 59 61 103 64 31 84 60 81 119 -2 25 -7 45 -11 45 -5 0 -7 8 -5 18 1 9 0
22 -4 27 -3 6 -9 29 -12 51 -10 56 7 73 72 69 27 -2 63 -10 79 -19z m1328 -92
l30 -13 -32 -1 c-25 0 -38 8 -57 33 -35 45 -33 67 1 26 15 -17 41 -38 58 -45z
m-1333 39 c11 -10 38 -50 59 -89 l40 -72 82 45 c139 76 163 65 201 -98 45
-192 39 -208 -129 -297 -107 -58 -120 -62 -180 -62 -47 0 -73 -5 -97 -20 -36
-22 -48 -25 -48 -11 0 5 -31 68 -70 140 -39 72 -70 133 -70 136 0 3 37 23 83
46 45 23 83 42 84 43 2 1 -10 62 -26 135 l-28 133 39 -5 c22 -3 49 -14 60 -24z
m1722 -299 c8 -31 63 -87 77 -78 5 3 9 0 9 -5 0 -42 -95 38 -104 87 -7 38 9
35 18 -4z m221 -129 c39 -9 93 -19 120 -22 93 -10 94 -14 30 -68 -120 -103
-225 -219 -225 -249 0 -9 -4 -16 -10 -16 -17 0 -11 30 12 63 12 18 51 63 87
100 92 96 99 109 75 138 -10 13 -32 26 -49 28 -16 1 -39 8 -50 14 -11 6 -25
10 -31 9 -18 -4 -64 16 -64 28 0 6 6 7 18 1 9 -5 49 -16 87 -26z m-2345 -77
c0 -5 -4 -7 -10 -3 -12 7 -60 -34 -60 -52 0 -8 39 -55 86 -105 48 -50 95 -110
105 -134 21 -47 22 -99 2 -116 -7 -6 -13 -16 -13 -23 0 -7 -37 -52 -82 -100
-46 -48 -87 -96 -92 -106 -15 -32 28 -64 107 -79 37 -8 67 -17 67 -21 0 -3 19
-9 42 -13 54 -9 135 -84 120 -113 -11 -21 -5 -46 10 -37 6 4 5 -3 -2 -15 -6
-12 -10 -29 -9 -39 4 -41 -2 -62 -17 -62 -12 0 -14 7 -9 30 4 17 7 55 7 84 1
43 -5 61 -23 85 -13 16 -32 30 -41 30 -9 1 -20 6 -23 11 -3 6 -17 10 -31 10
-13 0 -24 3 -24 8 0 4 -46 16 -102 26 -134 24 -168 34 -168 52 0 8 4 14 9 14
18 0 195 173 231 226 46 66 47 108 3 173 -37 57 -138 160 -210 214 -23 18 -44
40 -46 49 -4 15 5 18 62 20 77 4 111 -1 111 -14z m2270 -331 c0 -42 112 -170
233 -265 31 -25 57 -50 57 -57 0 -16 -139 -28 -157 -13 -9 7 -17 7 -28 -2 -9
-7 -15 -8 -15 -2 0 5 18 17 39 25 22 9 42 21 46 26 6 11 -9 46 -29 67 -159
168 -166 177 -166 231 0 28 3 34 10 23 5 -8 10 -23 10 -33z m-9 -347 c6 0 8 4
5 8 -4 6 16 7 59 3 6 -1 3 -6 -6 -11 -8 -5 -50 -11 -93 -14 -42 -2 -82 -9 -89
-14 -7 -5 -25 -14 -42 -19 -19 -6 -36 -21 -47 -44 -16 -34 -30 -182 -16 -173
4 3 8 -8 8 -25 0 -16 3 -37 6 -45 5 -12 2 -15 -10 -10 -9 3 -18 16 -21 28 -11
49 -12 82 -2 94 8 10 7 16 -2 22 -11 6 -11 15 -1 44 6 19 8 40 5 46 -9 14 42
80 61 80 8 0 25 5 37 12 22 12 60 19 105 18 12 0 22 6 23 13 0 9 2 9 6 0 2 -7
9 -13 14 -13z"/>
<path d="M2172 1982 c-20 -11 -29 -21 -23 -27 5 -6 30 -57 56 -115 27 -58 49
-107 51 -109 2 -2 21 4 43 13 l39 18 -56 119 c-30 65 -60 119 -66 119 -6 -1
-26 -9 -44 -18z m76 -124 c-1 -2 5 -14 15 -28 18 -26 22 -40 9 -40 -4 0 -13
15 -20 33 -8 17 -18 43 -24 57 -20 45 -17 66 3 23 11 -24 18 -44 17 -45z"/>
<path d="M1942 1740 c-47 -29 -72 -76 -72 -136 0 -169 227 -221 300 -68 38 78
7 169 -71 209 -41 22 -117 19 -157 -5z m78 -30 c-8 -6 -23 -10 -32 -10 -27 0
-68 -62 -68 -102 0 -38 39 -85 75 -91 11 -1 25 -6 32 -10 6 -4 14 -1 16 5 4 9
8 10 14 2 5 -8 18 2 38 27 32 41 45 48 45 25 0 -8 -16 -28 -36 -44 -29 -24
-43 -29 -79 -27 -101 7 -145 79 -107 175 13 34 35 51 75 60 36 8 48 3 27 -10z
m100 -32 c38 -52 28 -66 -12 -15 -16 20 -36 37 -44 37 -8 0 -14 5 -14 10 0 26
42 7 70 -32z m-45 -23 c31 -30 32 -71 3 -102 -29 -31 -72 -30 -103 2 -29 28
-31 45 -10 85 23 45 74 52 110 15z"/>
<path d="M1510 1666 c-42 -16 -114 -47 -117 -50 -2 -1 38 -88 87 -192 49 -104
91 -193 93 -199 7 -18 127 48 167 91 75 81 73 208 -4 292 -51 57 -159 85 -226
58z m60 -43 c0 -2 -6 -3 -13 -1 -7 2 -25 -7 -40 -18 -31 -25 -35 -58 -13 -107
16 -36 29 -69 30 -77 1 -3 11 -19 24 -37 12 -17 22 -35 22 -40 0 -20 45 -35
70 -24 58 24 87 69 92 142 3 50 4 49 -53 109 -42 46 -45 50 -28 50 16 0 79
-68 90 -98 12 -32 9 -109 -5 -137 -17 -31 -69 -85 -82 -85 -7 0 -14 -4 -16 -9
-1 -5 -15 -13 -30 -16 -24 -6 -29 -3 -49 42 -12 26 -22 53 -22 60 0 7 -6 14
-14 17 -7 3 -13 14 -13 25 0 11 -4 23 -10 26 -5 3 -10 15 -10 25 0 10 -3 20
-7 22 -5 2 -18 24 -30 50 -20 42 -20 48 -6 60 30 25 113 41 113 21z m78 -53
c36 -22 62 -72 62 -118 0 -33 -34 -88 -67 -109 -22 -15 -23 -12 -78 103 -30
64 -55 120 -55 125 0 24 98 23 138 -1z"/>
<path d="M2333 1663 c-18 -9 -33 -21 -33 -25 0 -11 29 -68 34 -68 9 0 76 31
76 35 0 10 -34 75 -39 74 -3 0 -21 -8 -38 -16z"/>
<path d="M754 1318 l-151 -72 16 -38 c9 -21 20 -38 24 -38 4 0 30 11 57 25 27
14 52 25 55 25 6 0 32 -53 121 -248 l33 -73 40 21 40 20 -75 156 c-41 86 -74
159 -74 163 0 3 26 17 59 30 l59 23 -17 39 c-9 21 -20 39 -26 38 -5 0 -78 -32
-161 -71z m141 12 c3 -5 0 -10 -7 -10 -23 0 -68 -50 -68 -76 0 -29 59 -174 71
-174 5 0 9 -11 9 -25 0 -14 4 -25 8 -25 11 0 35 -51 28 -57 -8 -8 -36 24 -36
41 0 9 -4 16 -10 16 -5 0 -9 3 -8 8 2 4 -9 32 -23 62 -15 30 -35 72 -44 93
-25 53 -52 69 -95 57 -19 -6 -42 -10 -50 -10 -20 1 160 89 183 90 9 0 17 5 17
10 0 6 4 10 9 10 6 0 13 -4 16 -10z"/>
<path d="M1126 1360 c-129 -39 -144 -236 -23 -294 84 -39 172 -9 215 74 40 79
9 170 -72 209 -45 22 -73 25 -120 11z m49 -40 c3 -5 0 -7 -8 -4 -8 3 -20 -2
-27 -10 -7 -9 -16 -14 -20 -11 -5 3 -16 -12 -25 -33 -10 -21 -26 -44 -36 -51
-19 -11 -19 -10 -4 26 18 44 42 72 70 84 28 11 43 11 50 -1z m81 -18 c85 -68
36 -222 -70 -222 -40 0 -93 25 -107 52 -16 27 -20 78 -8 78 5 0 9 -7 9 -16 0
-25 31 -71 56 -83 21 -9 55 -8 96 5 9 3 20 14 23 25 4 10 11 19 16 19 13 0 10
82 -4 101 -7 9 -28 26 -47 38 -33 20 -34 21 -10 21 14 0 35 -8 46 -18z m-29
-44 c58 -54 -4 -148 -78 -118 -26 11 -49 46 -49 76 0 25 47 64 76 64 15 0 38
-10 51 -22z"/>
<path d="M623 2837 c-18 -12 -32 -24 -30 -27 15 -33 235 -349 242 -349 6 0 23
10 38 23 l28 22 -118 177 c-65 97 -120 176 -123 176 -3 0 -20 -10 -37 -22z
m139 -189 c59 -90 82 -128 74 -128 -6 0 -136 196 -136 204 0 14 11 1 62 -76z"/>
<path d="M135 2748 c-82 -29 -125 -91 -125 -183 0 -111 74 -185 186 -185 103
0 184 81 184 185 0 60 -19 103 -63 142 -55 48 -120 63 -182 41z m126 -49 c44
-22 82 -74 75 -101 -2 -10 0 -20 5 -23 4 -3 6 -11 4 -18 -2 -7 -6 -24 -9 -39
-13 -57 -73 -100 -142 -100 -58 0 -102 27 -140 85 -36 54 -35 79 6 139 49 72
128 95 201 57z"/>
<path d="M133 2684 c-43 -21 -77 -91 -68 -136 11 -49 23 -67 58 -88 89 -55
197 6 199 110 1 96 -101 157 -189 114z m120 -34 c63 -50 52 -146 -19 -176 -47
-20 -87 -11 -119 28 -77 91 45 221 138 148z"/>
<path d="M2715 2219 c-60 -38 -109 -73 -107 -77 2 -4 12 -22 22 -39 l19 -33
83 53 c46 30 98 62 116 73 17 10 32 21 32 24 0 11 -40 70 -47 69 -5 0 -57 -32
-118 -70z m95 -4 c-7 -8 -17 -15 -22 -15 -5 0 -33 -16 -63 -35 -30 -19 -55
-31 -55 -26 0 9 43 38 105 72 39 21 50 23 35 4z"/>
<path d="M96 2225 c-11 -19 -17 -37 -15 -38 2 -2 43 -29 91 -60 l87 -56 20 35
c12 19 21 37 21 39 0 6 -169 115 -178 115 -4 0 -16 -16 -26 -35z m105 -52 c15
-9 31 -23 33 -29 5 -13 -60 21 -70 37 -8 14 5 11 37 -8z"/>
<path d="M2582 913 c-12 -19 -21 -36 -20 -38 32 -23 181 -115 182 -113 0 2 12
18 24 36 13 19 22 35 20 36 -7 7 -179 116 -181 116 -1 -1 -12 -17 -25 -37z
m97 -44 c48 -30 64 -49 40 -49 -15 0 -99 59 -99 70 0 14 4 13 59 -21z"/>
<path d="M325 913 c-11 -8 -60 -39 -110 -70 -50 -31 -91 -57 -93 -58 -5 -4 26
-63 37 -69 5 -3 61 26 124 65 l115 71 -20 34 c-26 43 -29 45 -53 27z m10 -64
c-4 -5 -11 -9 -16 -9 -6 0 -17 -7 -26 -15 -8 -8 -19 -13 -24 -10 -5 4 -9 2 -9
-4 0 -13 -68 -53 -83 -48 -12 4 56 57 115 89 31 17 54 15 43 -3z"/>
<path d="M2725 602 c-48 -23 -69 -45 -90 -95 -32 -77 -14 -160 48 -214 92 -81
240 -55 290 50 24 50 22 140 -4 186 -45 81 -157 114 -244 73z m140 -22 c37
-14 104 -90 111 -127 9 -47 -29 -116 -86 -156 -29 -20 -124 -23 -156 -4 -31
18 -72 69 -80 103 -12 43 -12 47 5 68 11 13 11 17 3 12 -10 -6 -10 -1 2 20 17
32 63 78 86 87 25 9 87 8 115 -3z"/>
<path d="M2743 543 c-64 -32 -80 -141 -28 -197 75 -81 218 -27 217 83 -2 105
-95 161 -189 114z m140 -43 c84 -93 -45 -226 -141 -145 -79 67 -19 197 83 180
17 -3 42 -19 58 -35z"/>
<path d="M2127 516 l-29 -23 118 -174 c64 -96 118 -175 119 -177 4 -5 74 43
72 49 -9 23 -234 348 -242 348 -5 0 -23 -10 -38 -23z m85 -89 c18 -29 36 -53
40 -55 5 -2 8 -9 8 -16 0 -7 9 -21 20 -31 11 -10 20 -24 20 -30 0 -7 7 -16 16
-19 8 -3 12 -10 9 -16 -3 -5 -1 -10 4 -10 6 0 11 -7 11 -15 0 -8 5 -15 10 -15
6 0 10 -4 10 -10 0 -29 -32 -2 -76 63 -27 39 -53 75 -59 79 -5 4 -7 8 -3 8 4
0 -10 25 -32 57 -22 31 -40 60 -40 64 0 21 32 -8 62 -54z"/>
<path d="M643 300 c-92 -56 -103 -172 -23 -252 36 -36 41 -38 100 -38 46 0 72
6 96 20 37 23 74 91 74 136 0 40 -39 104 -79 131 -44 30 -122 31 -168 3z m142
-26 c32 -15 70 -67 60 -83 -3 -5 -1 -12 5 -16 5 -3 8 -16 6 -28 -3 -12 -5 -25
-5 -29 -1 -5 -17 -26 -37 -48 -42 -47 -87 -59 -130 -37 -27 15 -64 51 -64 63
0 3 -7 13 -16 22 -18 17 -14 94 5 100 6 2 11 8 11 14 0 16 41 48 61 48 10 0
21 5 24 10 7 11 31 6 80 -16z"/>
<path d="M660 232 c-45 -45 -40 -116 10 -145 52 -31 131 -12 144 35 19 73 -12
126 -81 135 -37 5 -45 2 -73 -25z m115 -17 c14 -13 25 -36 25 -50 0 -33 -42
-75 -75 -75 -33 0 -75 42 -75 75 0 33 42 75 75 75 14 0 37 -11 50 -25z"/>
<path d="M1492 302 c-16 -2 -21 -9 -18 -20 2 -9 7 -52 11 -95 7 -74 8 -79 28
-73 12 3 32 6 45 6 22 0 22 2 16 66 -4 37 -7 78 -8 93 -1 27 -17 32 -74 23z
m52 -92 c5 -41 4 -46 -14 -46 -17 0 -20 7 -19 46 1 37 2 41 9 20 8 -25 8 -25
9 4 1 40 8 30 15 -24z"/>
</g>
</svg>
